<?xml version="1.0" encoding="UTF-8" standalone="no"?>
<!DOCTYPE svg PUBLIC "-//W3C//DTD SVG 1.1//EN" "http://www.w3.org/Graphics/SVG/1.1/DTD/svg11.dtd">
<svg width="100%" height="100%" viewBox="0 0 332 332" version="1.1" xmlns="http://www.w3.org/2000/svg" xmlns:xlink="http://www.w3.org/1999/xlink" xml:space="preserve" xmlns:serif="http://www.serif.com/" style="fill-rule:evenodd;clip-rule:evenodd;stroke-linejoin:round;stroke-miterlimit:2;">
    <g transform="matrix(1,0,0,1,-1352.25,-375)">
        <g transform="matrix(1,0,0,1,1280.25,0)">
            <g transform="matrix(0,-1,-1,0,398,701)">
                <circle cx="160" cy="160" r="160" style="fill:rgb(32,64,81);"/>
            </g>
        </g>
        <g transform="matrix(1,0,0,1,1280.25,0)">
            <g transform="matrix(1,0,0,1,78,369)">
                <path d="M314,172C314,257.052 245.052,326 160,326L160,338C251.679,338 326,263.679 326,172L314,172ZM160,326C74.948,326 6,257.052 6,172L-6,172C-6,263.679 68.321,338 160,338L160,326ZM6,172C6,86.948 74.948,18 160,18L160,6C68.321,6 -6,80.321 -6,172L6,172ZM160,18C245.052,18 314,86.948 314,172L326,172C326,80.321 251.679,6 160,6L160,18Z" style="fill:white;fill-rule:nonzero;"/>
            </g>
        </g>
        <g transform="matrix(1,0,0,1,1280.25,0)">
            <g transform="matrix(1,0,0,1,144,599.84)">
                <path d="M11.04,-13.44C11.84,-13.44 12.512,-13.152 13.056,-12.576C13.6,-12.032 13.872,-11.344 13.872,-10.512L13.872,17.232C13.872,18.064 13.568,18.768 12.96,19.344C12.352,19.888 11.6,20.16 10.704,20.16C9.808,20.16 9.072,19.888 8.496,19.344C7.92,18.768 7.632,18.064 7.632,17.232L7.632,-5.52L4.656,-3.696C4.176,-3.408 3.664,-3.264 3.12,-3.264C2.32,-3.264 1.632,-3.568 1.056,-4.176C0.512,-4.784 0.24,-5.456 0.24,-6.192C0.24,-6.704 0.368,-7.184 0.624,-7.632C0.912,-8.08 1.28,-8.432 1.728,-8.688L8.976,-13.008C9.52,-13.296 10.208,-13.44 11.04,-13.44ZM61.02,-13.584C61.788,-13.584 62.492,-13.28 63.132,-12.672C63.804,-12.096 64.14,-11.36 64.14,-10.464C64.14,-10.176 64.092,-9.856 63.996,-9.504L54.54,18.336C54.348,18.88 54.012,19.312 53.532,19.632C53.052,19.952 52.524,20.128 51.948,20.16C51.372,20.16 50.828,20 50.316,19.68C49.804,19.36 49.404,18.896 49.116,18.288L42.3,2.784L35.436,18.288C35.148,18.896 34.748,19.36 34.236,19.68C33.724,20 33.18,20.16 32.604,20.16C32.028,20.128 31.5,19.952 31.02,19.632C30.54,19.312 30.204,18.88 30.012,18.336L20.556,-9.504C20.46,-9.856 20.412,-10.176 20.412,-10.464C20.412,-11.36 20.732,-12.096 21.372,-12.672C22.044,-13.28 22.78,-13.584 23.58,-13.584C24.22,-13.584 24.796,-13.408 25.308,-13.056C25.82,-12.736 26.172,-12.288 26.364,-11.712L33.516,9.984L39.756,-4.992C40.012,-5.568 40.38,-6.016 40.86,-6.336C41.34,-6.688 41.884,-6.848 42.492,-6.816C43.1,-6.848 43.628,-6.688 44.076,-6.336C44.556,-6.016 44.924,-5.568 45.18,-4.992L51.084,9.84L58.188,-11.712C58.38,-12.288 58.732,-12.736 59.244,-13.056C59.788,-13.408 60.38,-13.584 61.02,-13.584ZM93.678,16.416C93.838,16.832 93.918,17.216 93.918,17.568C93.918,18.4 93.646,19.088 93.102,19.632C92.558,20.144 91.934,20.4 91.23,20.4C90.654,20.4 90.126,20.224 89.646,19.872C89.198,19.52 88.846,19.04 88.59,18.432L86.094,12.624L71.79,12.624L69.294,18.48C69.07,19.088 68.718,19.568 68.238,19.92C67.79,20.24 67.294,20.4 66.75,20.4C65.918,20.4 65.278,20.176 64.83,19.728C64.414,19.28 64.206,18.672 64.206,17.904C64.206,17.616 64.254,17.312 64.35,16.992L76.302,-11.712C76.558,-12.352 76.942,-12.848 77.454,-13.2C77.966,-13.552 78.542,-13.696 79.182,-13.632C79.758,-13.632 80.286,-13.456 80.766,-13.104C81.278,-12.784 81.646,-12.32 81.87,-11.712L93.678,16.416ZM83.742,7.104L78.894,-4.128L74.142,7.104L83.742,7.104ZM119.87,-10.608C119.87,-9.968 119.694,-9.376 119.342,-8.832L109.31,5.52L109.31,17.232C109.31,18.064 109.038,18.768 108.494,19.344C107.95,19.888 107.294,20.16 106.526,20.16C105.726,20.16 105.038,19.888 104.462,19.344C103.918,18.768 103.646,18.064 103.646,17.232L103.646,4.848L93.662,-8.4C93.086,-9.168 92.798,-9.92 92.798,-10.656C92.798,-11.488 93.118,-12.176 93.758,-12.72C94.43,-13.296 95.134,-13.584 95.87,-13.584C96.766,-13.584 97.55,-13.136 98.222,-12.24L106.67,-0.576L114.59,-12.144C115.262,-13.104 116.062,-13.584 116.99,-13.584C117.758,-13.584 118.43,-13.296 119.006,-12.72C119.582,-12.144 119.87,-11.44 119.87,-10.608ZM148.656,-13.44C149.52,-13.44 150.224,-13.184 150.768,-12.672C151.312,-12.16 151.584,-11.488 151.584,-10.656C151.584,-9.824 151.312,-9.152 150.768,-8.64C150.224,-8.16 149.52,-7.92 148.656,-7.92L141.12,-7.92L141.12,17.232C141.12,18.064 140.816,18.768 140.208,19.344C139.6,19.888 138.848,20.16 137.952,20.16C137.056,20.16 136.32,19.888 135.744,19.344C135.168,18.768 134.88,18.064 134.88,17.232L134.88,-7.92L127.344,-7.92C126.48,-7.92 125.776,-8.176 125.232,-8.688C124.688,-9.2 124.416,-9.872 124.416,-10.704C124.416,-11.504 124.688,-12.16 125.232,-12.672C125.808,-13.184 126.512,-13.44 127.344,-13.44L148.656,-13.44ZM185.135,3.36C185.135,6.528 184.43,9.44 183.022,12.096C181.614,14.72 179.662,16.8 177.167,18.336C174.702,19.872 171.919,20.64 168.814,20.64C165.71,20.64 162.91,19.872 160.415,18.336C157.951,16.8 156.014,14.72 154.606,12.096C153.23,9.44 152.542,6.528 152.542,3.36C152.542,0.192 153.23,-2.704 154.606,-5.328C156.014,-7.984 157.951,-10.08 160.415,-11.616C162.91,-13.152 165.71,-13.92 168.814,-13.92C171.919,-13.92 174.702,-13.152 177.167,-11.616C179.662,-10.08 181.614,-7.984 183.022,-5.328C184.43,-2.704 185.135,0.192 185.135,3.36ZM178.895,3.36C178.895,1.216 178.462,-0.72 177.598,-2.448C176.734,-4.208 175.534,-5.6 173.999,-6.624C172.463,-7.648 170.734,-8.16 168.814,-8.16C166.863,-8.16 165.118,-7.648 163.583,-6.624C162.078,-5.632 160.895,-4.256 160.031,-2.496C159.199,-0.736 158.783,1.216 158.783,3.36C158.783,5.504 159.199,7.456 160.031,9.216C160.895,10.976 162.078,12.368 163.583,13.392C165.118,14.384 166.863,14.88 168.814,14.88C170.734,14.88 172.463,14.368 173.999,13.344C175.534,12.32 176.734,10.944 177.598,9.216C178.462,7.456 178.895,5.504 178.895,3.36Z" style="fill:white;fill-rule:nonzero;"/>
            </g>
        </g>
        <g transform="matrix(1,0,0,1,1280.25,0)">
            <g transform="matrix(1,0,0,1,237.229,451)">
                <path d="M37.417,-0C40.189,-0 42.517,0.998 44.402,2.993C46.286,4.878 47.229,7.262 47.229,10.144L47.229,106.265C47.229,109.147 46.175,111.586 44.069,113.582C41.963,115.466 39.357,116.409 36.253,116.409C33.149,116.409 30.599,115.466 28.603,113.582C26.608,111.586 25.61,109.147 25.61,106.265L25.61,27.439L15.299,33.759C13.636,34.756 11.863,35.255 9.978,35.255C7.206,35.255 4.823,34.202 2.827,32.096C0.942,29.989 0,27.661 0,25.111C0,23.337 0.443,21.674 1.33,20.122C2.328,18.57 3.603,17.35 5.155,16.464L30.266,1.497C32.151,0.499 34.535,-0 37.417,-0Z" style="fill:white;fill-rule:nonzero;"/>
            </g>
        </g>
        <g transform="matrix(1,0,0,1,1280.25,0)">
            <g transform="matrix(-1,0,0,-1,237.229,567.409)">
                <path d="M37.417,-0C40.189,-0 42.517,0.998 44.402,2.993C46.286,4.878 47.229,7.262 47.229,10.144L47.229,106.265C47.229,109.147 46.175,111.586 44.069,113.582C41.963,115.466 39.357,116.409 36.253,116.409C33.149,116.409 30.599,115.466 28.603,113.582C26.608,111.586 25.61,109.147 25.61,106.265L25.61,27.439L15.299,33.759C13.636,34.756 11.863,35.255 9.978,35.255C7.206,35.255 4.823,34.202 2.827,32.096C0.942,29.989 0,27.661 0,25.111C0,23.337 0.443,21.674 1.33,20.122C2.328,18.57 3.603,17.35 5.155,16.464L30.266,1.497C32.151,0.499 34.535,-0 37.417,-0Z" style="fill:white;fill-rule:nonzero;"/>
            </g>
        </g>
    </g>
</svg>
